<?xml version="1.0" standalone="no"?>
<!DOCTYPE svg PUBLIC "-//W3C//DTD SVG 20010904//EN"
 "http://www.w3.org/TR/2001/REC-SVG-20010904/DTD/svg10.dtd">
<svg version="1.0" xmlns="http://www.w3.org/2000/svg"
 width="300.000000pt" height="300.000000pt" viewBox="0 0 300.000000 300.000000"
 preserveAspectRatio="xMidYMid meet">
<metadata>
Created by potrace 1.11, written by Peter Selinger 2001-2013
</metadata>
<g transform="translate(0.000000,300.000000) scale(0.100000,-0.100000)"
fill="#000000" stroke="none">
<path d="M1779 2232 c-15 -9 -196 -187 -404 -394 l-377 -377 -138 138 c-82 82
-149 141 -165 145 -15 4 -41 2 -59 -4 -43 -14 -622 -595 -631 -632 -13 -53 4
-80 145 -220 190 -188 183 -188 375 2 l140 140 143 -143 143 -142 50 0 49 0
390 390 390 390 387 -387 c257 -256 397 -389 416 -393 15 -4 38 -4 52 -1 33 8
302 277 311 311 4 14 3 39 -2 55 -6 19 -201 222 -552 575 -299 300 -552 550
-562 555 -28 15 -72 12 -101 -8z"/>
</g>
</svg>
